<svg width="31" height="31" viewBox="0 0 31 31" fill="none" xmlns="http://www.w3.org/2000/svg">
<path d="M10.2093 13.7528L13.764 10.1545L11.4493 7.79697L10.788 8.45873C10.4849 8.76204 10.106 8.92059 9.65133 8.93438C9.19667 8.94816 8.804 8.78962 8.47333 8.45873C8.14267 8.12785 7.97733 7.73493 7.97733 7.27997C7.97733 6.82501 8.14267 6.43209 8.47333 6.10121L9.09333 5.48081L7.23333 3.6196L3.63733 7.21793L10.2093 13.7528ZM23.7667 27.3603L27.3627 23.762L25.5027 21.9008L24.8413 22.5212C24.5107 22.8521 24.1249 23.0175 23.684 23.0175C23.2431 23.0175 22.8573 22.8521 22.5267 22.5212C22.196 22.1903 22.0307 21.8043 22.0307 21.3631C22.0307 20.9219 22.196 20.5359 22.5267 20.205L23.1467 19.5432L20.7907 17.2271L17.236 20.784L23.7667 27.3603ZM22.4853 6.26665L24.8 8.58282L27.1147 6.26665L24.7587 3.90912L22.4853 6.26665ZM2.27333 30.3796C1.80489 30.3796 1.41222 30.2211 1.09533 29.904C0.778444 29.5869 0.62 29.1939 0.62 28.7252V24.0515C0.62 23.8309 0.661333 23.6172 0.744 23.4104C0.826667 23.2036 0.950667 23.0175 1.116 22.8521L7.85333 16.1104L0.702667 8.95506C0.234222 8.48631 0 7.90727 0 7.21793C0 6.5286 0.234222 5.94955 0.702667 5.48081L5.49733 0.683033C5.96578 0.214285 6.54444 -0.0131958 7.23333 0.000590859C7.92222 0.0143776 8.50089 0.255645 8.96933 0.724393L16.1613 7.87969L22.4027 1.59296C22.7333 1.26207 23.1053 1.01391 23.5187 0.848473C23.932 0.683033 24.3591 0.600313 24.8 0.600313C25.2409 0.600313 25.668 0.683033 26.0813 0.848473C26.4947 1.01391 26.8667 1.26207 27.1973 1.59296L29.388 3.8264C29.7187 4.15728 29.9667 4.52952 30.132 4.94312C30.2973 5.35673 30.38 5.78411 30.38 6.22529C30.38 6.66646 30.2973 7.08696 30.132 7.48677C29.9667 7.88659 29.7187 8.25193 29.388 8.58282L23.1467 14.8696L30.2973 22.0249C30.7658 22.4936 31 23.0726 31 23.762C31 24.4513 30.7658 25.0304 30.2973 25.4991L25.5027 30.2969C25.0342 30.7656 24.4556 31 23.7667 31C23.0778 31 22.4991 30.7656 22.0307 30.2969L14.88 23.1416L8.14267 29.8833C7.97733 30.0487 7.79133 30.1728 7.58467 30.2555C7.378 30.3382 7.16444 30.3796 6.944 30.3796H2.27333Z" fill="#D9D9D9"/>
</svg>
